<svg width="29" height="29" viewBox="0 0 29 29" fill="none" xmlns="http://www.w3.org/2000/svg">
<g clip-path="url(#clip0_5_389)">
<path d="M28.4466 13.7313L24.2836 12.5383C20.4563 11.4408 17.5143 8.49649 16.423 4.66118L15.2325 0.489369C15.0455 -0.168331 13.9504 -0.168331 13.7634 0.489369L12.5729 4.66118C11.4778 8.50031 8.53961 11.4447 4.71237 12.5383L0.549345 13.7313C0.221187 13.8269 -0.0039444 14.1252 -0.0039444 14.4655C-0.0039444 14.8058 0.221187 15.1079 0.549345 15.1997L4.71237 16.3927C8.53961 17.4902 11.4816 20.4345 12.5729 24.2698L13.7634 28.4416C13.8588 28.7705 14.1565 28.9961 14.4961 28.9961C14.8357 28.9961 15.1371 28.7705 15.2287 28.4416L16.4192 24.2698C17.5143 20.4307 20.4525 17.4863 24.2797 16.3927L28.4428 15.1997C28.7709 15.1041 28.9961 14.8058 28.9961 14.4655C28.9961 14.1252 28.7709 13.8231 28.4428 13.7313H28.4466Z" fill="#EFB3FF"/>
</g>
<defs>
<clipPath id="clip0_5_389">
<rect width="29" height="29" fill="white"/>
</clipPath>
</defs>
</svg>
