<svg width="41" height="41" viewBox="0 0 41 41" fill="none" xmlns="http://www.w3.org/2000/svg">
<g clip-path="url(#clip0_3_108)">
<path d="M33.3011 0H7.69889C2.55111 0 0 2.57389 0 7.69889V33.3239C0 38.4489 2.55111 41 7.69889 41H33.3011C38.4489 41 41 38.4489 41 33.3239V7.69889C41 2.57389 38.4489 0 33.3011 0ZM30.8867 19.68L18.3589 33.5972C18.1767 33.7794 17.9489 33.8933 17.7211 33.8933C17.6072 33.8933 17.5161 33.8706 17.4022 33.825C17.0833 33.6883 16.8556 33.3922 16.8556 33.0278V22.755H10.7511C10.4094 22.755 10.1133 22.55 9.97667 22.2311C9.84 21.935 9.88556 21.5706 10.1133 21.32L22.6411 7.40278C22.8917 7.12944 23.2561 7.03833 23.5978 7.175C23.9167 7.31167 24.1444 7.60778 24.1444 7.97222V18.245H30.2489C30.5906 18.245 30.8867 18.45 31.0233 18.7689C31.16 19.065 31.1144 19.4294 30.8867 19.68Z" fill="#FFB9CA"/>
</g>
<defs>
<clipPath id="clip0_3_108">
<rect width="41" height="41" fill="white"/>
</clipPath>
</defs>
</svg>
