<svg width="27" height="34" viewBox="0 0 27 34" fill="none" xmlns="http://www.w3.org/2000/svg">
<g clip-path="url(#clip0_2_81)">
<path fill-rule="evenodd" clip-rule="evenodd" d="M6.31011 18.769L6.31011 15.2161L9.1618 14.1517L9.1618 19.8483L6.31011 18.769ZM10.4208 32.6958L10.4208 1.31922C10.4208 0.599651 11.0124 0.0149913 11.7404 0.0149912L21.7669 0.0149908C22.4949 0.0149908 23.0713 0.614642 23.1624 1.31922L26.9848 32.6958C27.0758 33.4153 26.3933 34 25.6652 34L11.7404 34C11.0124 34 10.4208 33.4153 10.4208 32.6958ZM12.8933 28.3333C12.8933 28.4982 13.0298 28.6481 13.2118 28.6481L15.6388 28.6481L15.6388 31.0467C15.6388 31.2116 15.7753 31.3616 15.9421 31.3616L18.3084 31.3616C18.4753 31.3616 18.627 31.2266 18.627 31.0467L18.627 28.6481L21.0539 28.6481C21.2208 28.6481 21.3725 28.5132 21.3725 28.3333L21.3725 25.9947C21.3725 25.8298 21.236 25.6799 21.0539 25.6799L18.627 25.6799L18.627 23.2813C18.627 23.1164 18.4904 22.9665 18.3084 22.9665L15.9421 22.9665C15.7753 22.9665 15.6388 23.1014 15.6388 23.2813L15.6388 25.6799L13.2118 25.6799C13.0449 25.6799 12.8933 25.8148 12.8933 25.9947L12.8933 28.3333ZM13.6972 8.6649C13.6972 9.3545 14.2433 9.92416 14.9107 9.92416C15.5781 9.92416 16.1242 9.36949 16.1242 8.6649C16.1242 7.96032 15.5781 7.40564 14.9107 7.40564C14.2433 7.40564 13.6972 7.96032 13.6972 8.6649ZM16.3062 7.28572C16.3062 7.97531 16.8522 8.54497 17.5197 8.54497C18.1871 8.54497 18.7331 7.9903 18.7331 7.28572C18.7331 6.58113 18.1871 6.02646 17.5197 6.02646C16.8522 6.02646 16.3062 6.58113 16.3062 7.28572ZM14.0006 5.29189C14.0006 5.98148 14.5466 6.55115 15.214 6.55115C15.8815 6.55115 16.4275 5.99647 16.4275 5.29189C16.4275 4.5873 15.8815 4.03263 15.214 4.03263C14.5466 4.03263 14.0006 4.5873 14.0006 5.29189ZM16.6247 3.9127C16.6247 4.60229 17.1708 5.17196 17.8382 5.17196C18.5056 5.17196 19.0517 4.61729 19.0517 3.9127C19.0517 3.20811 18.5056 2.65344 17.8382 2.65344C17.1708 2.65344 16.6247 3.20811 16.6247 3.9127ZM0.288198 5.03704C0.0151641 5.18695 -0.0910156 5.51676 0.0606698 5.7866C0.212355 6.05644 0.546063 6.16138 0.819097 6.01147C0.819097 6.01147 2.73033 5.00706 4.42921 5.097C5.1573 5.14198 5.77921 5.4418 6.20393 5.89154C6.47696 6.17637 6.65899 6.52117 6.75 6.88095C6.82584 7.24074 6.7955 7.61552 6.64382 7.9903C6.40112 8.55996 5.85505 9.11464 4.92977 9.54938C4.52022 9.74427 4.08033 9.95415 3.65561 10.209C3.21573 10.4638 2.79101 10.7337 2.42696 11.0335C1.72921 11.5882 1.30449 12.1878 1.09213 12.8025C0.834266 13.537 0.879771 14.2716 1.13764 14.9462C1.3955 15.5908 1.85056 16.1755 2.4573 16.6252C3.15505 17.1649 4.05 17.5247 4.99045 17.5996C5.29382 17.6296 5.56685 17.4048 5.59719 17.0899C5.62753 16.7901 5.4 16.5203 5.08146 16.4903C4.35337 16.4303 3.67078 16.1455 3.12472 15.7407C2.68483 15.4109 2.35112 14.9912 2.1691 14.5265C2.00224 14.0917 1.97191 13.612 2.13876 13.1473C2.29045 12.7125 2.60898 12.2778 3.12472 11.873C3.45842 11.6032 3.82247 11.3633 4.21685 11.1534C4.61123 10.9286 5.02078 10.7337 5.41517 10.5388C6.62865 9.96914 7.34157 9.21958 7.69045 8.41005C7.93314 7.8254 7.97865 7.21076 7.8573 6.65609C7.73595 6.10141 7.44775 5.57672 7.0382 5.14198C6.43146 4.49736 5.53651 4.06261 4.52022 4.00265C2.51797 3.89771 0.333704 5.03704 0.333704 5.03704L0.288198 5.03704Z" fill="black"/>
</g>
<defs>
<clipPath id="clip0_2_81">
<rect width="34" height="27" fill="white" transform="translate(0 34) rotate(-90)"/>
</clipPath>
</defs>
</svg>
