<svg viewBox="0 0 89 89" fill="none" xmlns="http://www.w3.org/2000/svg">
<g clip-path="url(#clip0_5_513)">
<path d="M72.2878 0H16.7122C5.53778 0 0 5.58722 0 16.7122V72.3372C0 83.4622 5.53778 89 16.7122 89H72.2878C83.4622 89 89 83.4622 89 72.3372V16.7122C89 5.58722 83.4622 0 72.2878 0ZM67.0467 42.72L39.8522 72.9306C39.4567 73.3261 38.9622 73.5733 38.4678 73.5733C38.2206 73.5733 38.0228 73.5239 37.7756 73.425C37.0833 73.1283 36.5889 72.4856 36.5889 71.6945V49.395H23.3378C22.5961 49.395 21.9533 48.95 21.6567 48.2578C21.36 47.615 21.4589 46.8239 21.9533 46.28L49.1478 16.0694C49.6917 15.4761 50.4828 15.2783 51.2244 15.575C51.9167 15.8717 52.4111 16.5144 52.4111 17.3056V39.605H65.6622C66.4039 39.605 67.0467 40.05 67.3433 40.7422C67.64 41.385 67.5411 42.1761 67.0467 42.72Z" fill="#FF2B60"/>
</g>
<defs>
<clipPath id="clip0_5_513">
<rect width="89" height="89" fill="white"/>
</clipPath>
</defs>
</svg>
