<svg viewBox="0 0 601 262" fill="none" xmlns="http://www.w3.org/2000/svg">
<path d="M355.5 70.7C319.1 70.7 296.9 93 296.9 124.3C296.9 156.7 322.3 176.1 353.3 176.1H353.5C384.1 176.1 411.2 157.2 411.2 122.2C411 92.3 388.6 70.7 355.5 70.7ZM353.9 153.3H353.7C339.3 153.3 330.6 140.7 330.6 123.6C330.6 108.4 337.5 93.7 354.1 93.7C369.9 93.7 376.8 108.2 376.8 123.3C376.7 142.6 367.3 153.3 353.9 153.3Z" fill="url(#paint0_linear_1_30)"/>
<path d="M553.5 70.7C545.2 70.7 538.6 72.5 532.8 76.1C527.7 79.1 523 83.2 518.8 89.1H518.4C513.7 77.8 502.7 70.7 489 70.7C469.6 70.7 460.5 81.4 456.6 87.4H455.9L454.6 73.1H427.2C427.6 81.9 428.1 92.8 428.1 105.9V173.7H459.7V116.8C459.7 114.2 459.9 111.5 460.9 108.7C462.8 104 467.8 96.8 477.1 96.8C487.6 96.8 493.4 105.1 493.4 119.6V173.7H525V116.6C525 114.3 525.3 111 526.3 108.4C528.5 102.3 534 96.9 542.1 96.9C552.8 96.9 558.7 105.1 558.7 120.7V173.8H590V116.3C589.9 84.1 573.1 70.7 553.5 70.7Z" fill="url(#paint1_linear_1_30)"/>
<path d="M149 73H182.2V174.8H149V73Z" fill="url(#paint2_linear_1_30)"/>
<path d="M265.8 150.8C249.8 150.8 235.9 141.5 235.9 122.9C235.7 106.8 247.3 95.2 265 95.2C274.5 95.2 280.6 96.9 285 98.8L290.3 74.9C282.4 72 272.3 70.5 263.4 70.5C222.9 70.5 202.1 95.4 202.1 124.1C202.1 155.3 224.1 175.9 258.9 175.9C272.2 175.9 283.9 173.7 290.5 170.7L286.4 147C281 149.3 274.4 150.8 265.8 150.8Z" fill="url(#paint3_linear_1_30)"/>
<path d="M165.6 60.8C175.872 60.8 184.2 52.4725 184.2 42.2C184.2 31.9275 175.872 23.6 165.6 23.6C155.328 23.6 147 31.9275 147 42.2C147 52.4725 155.328 60.8 165.6 60.8Z" fill="url(#paint4_linear_1_30)"/>
<path d="M151.7 35.6C151.7 30.2 158 25.8 165.6 25.8C173.2 25.8 179.5 30.3 179.5 35.7C179.5 41.1 173.2 45.5 165.6 45.5C157.8 45.5 151.7 41.1 151.7 35.6Z" fill="url(#paint5_linear_1_30)"/>
<path d="M355.5 74.5C322.1 74.5 300.6 94.1 300.6 124.4C300.6 152.7 322.3 172.5 353.3 172.5H353.5C380.3 172.5 407.4 157 407.4 122.3C407.3 94.1 386 74.5 355.5 74.5ZM353.9 157H353.7C337.6 157 326.9 143.6 326.9 123.6C326.9 103.2 337.5 90 354.1 90C372.3 90 380.5 106.7 380.5 123.3C380.5 143.7 370 157 353.9 157Z" fill="url(#paint6_linear_1_30)"/>
<path d="M553.5 73.9C546.1 73.9 540 75.5 534.5 78.9C529.5 81.8 525.2 85.7 521.4 91C520.8 91.9 519.8 92.3 518.8 92.3H518.4C517.1 92.3 516 91.6 515.4 90.3C511.3 80.2 501.1 73.9 488.9 73.9C475.8 73.9 465.8 79 459.1 89.1C458.5 90 457.5 90.5 456.4 90.5H455.7C454.1 90.5 452.7 89.2 452.5 87.6L451.8 79.2C451.7 77.6 450.3 76.3 448.6 76.3H433.7C431.9 76.3 430.4 77.8 430.5 79.6C430.8 88.1 431 96.8 431 105.8V167.2C431 169 432.4 170.4 434.2 170.4H453C454.8 170.4 456.2 169 456.2 167.2V116.7C456.2 114.1 456.4 110.7 457.6 107.6C460.4 100.8 466.7 93.6 476.7 93.6C488.9 93.6 496.2 103.3 496.2 119.6V167.4C496.2 169.2 497.6 170.6 499.4 170.6H518.2C520 170.6 521.4 169.2 521.4 167.4V116.7C521.4 114.3 521.8 110.4 522.8 107.4C525.2 100.8 531.4 93.8 541.6 93.8C548.9 93.8 561.4 97.3 561.4 120.8V167.5C561.4 169.3 562.8 170.7 564.6 170.7H583.4C585.2 170.7 586.6 169.3 586.6 167.5V116C586.7 89.7 574.4 73.9 553.5 73.9Z" fill="url(#paint7_linear_1_30)"/>
<path d="M283.9 157.3C283.5 155 281.2 153.4 278.9 153.9C274.8 154.8 270.5 155.2 265.8 155.2C248.8 155.2 231.7 145.3 231.7 123.1C231.6 114.4 234.7 106.4 240.3 100.8C246.4 94.7 255.1 91.3 265.1 91.3C269.8 91.3 274 91.7 277.9 92.5C280.1 92.9 282.4 91.5 282.9 89.3L284.5 82.3C285 80 283.5 77.7 281.3 77.2C275.7 75.9 269.5 75.3 263.5 75.3C221.5 75.3 206.5 101.9 206.5 124.7C206.5 153.5 227.1 172.2 259 172.2C267.3 172.2 275.6 171.2 282 169.6C284.1 169.1 285.5 166.9 285.1 164.7L283.9 157.3Z" fill="url(#paint8_linear_1_30)"/>
<path d="M176.3 75.6H154.8C153 75.6 151.6 77 151.6 78.8V168.9C151.6 170.7 153 172.1 154.8 172.1H176.3C178.1 172.1 179.5 170.7 179.5 168.9V78.8C179.5 77 178 75.6 176.3 75.6Z" fill="url(#paint9_linear_1_30)"/>
<path d="M165.9 61.1C176.172 61.1 184.5 52.7725 184.5 42.5C184.5 32.2275 176.172 23.9 165.9 23.9C155.627 23.9 147.3 32.2275 147.3 42.5C147.3 52.7725 155.627 61.1 165.9 61.1Z" fill="url(#paint10_linear_1_30)"/>
<path d="M152 35.9C152 30.5 158.3 26.1 166 26.1C173.7 26.1 179.9 30.5 179.9 36C179.9 41.4 173.6 45.8 165.9 45.8C158.2 45.8 151.9 41.4 152 35.9Z" fill="url(#paint11_linear_1_30)"/>
<path d="M75.8129 100.053L61.4699 56L46.8708 100.053H0L37.9065 127.203L23.5635 171L61.4699 143.851L99.1203 171L84.7773 127.203L122.684 100.053H75.8129Z" fill="white"/>
<defs>
<linearGradient id="paint0_linear_1_30" x1="353.98" y1="176.15" x2="353.98" y2="70.7346" gradientUnits="userSpaceOnUse">
<stop stop-color="white"/>
<stop offset="1" stop-color="#D2D3D4"/>
</linearGradient>
<linearGradient id="paint1_linear_1_30" x1="508.54" y1="176.183" x2="508.54" y2="70.7629" gradientUnits="userSpaceOnUse">
<stop stop-color="white"/>
<stop offset="1" stop-color="#D2D3D4"/>
</linearGradient>
<linearGradient id="paint2_linear_1_30" x1="165.593" y1="176.183" x2="165.593" y2="70.7629" gradientUnits="userSpaceOnUse">
<stop stop-color="white"/>
<stop offset="1" stop-color="#D2D3D4"/>
</linearGradient>
<linearGradient id="paint3_linear_1_30" x1="246.384" y1="176.183" x2="246.384" y2="70.7673" gradientUnits="userSpaceOnUse">
<stop stop-color="white"/>
<stop offset="1" stop-color="#D2D3D4"/>
</linearGradient>
<linearGradient id="paint4_linear_1_30" x1="175.111" y1="28.1988" x2="158.674" y2="52.4243" gradientUnits="userSpaceOnUse">
<stop stop-color="#D3AB60"/>
<stop offset="1" stop-color="#9A7E42"/>
</linearGradient>
<linearGradient id="paint5_linear_1_30" x1="165.606" y1="44.2142" x2="165.629" y2="22.2915" gradientUnits="userSpaceOnUse">
<stop stop-color="white" stop-opacity="0"/>
<stop offset="0.9537" stop-color="white" stop-opacity="0.2861"/>
<stop offset="1" stop-color="white" stop-opacity="0.3"/>
</linearGradient>
<linearGradient id="paint6_linear_1_30" x1="354.583" y1="144.044" x2="352.295" y2="65.6557" gradientUnits="userSpaceOnUse">
<stop stop-color="white" stop-opacity="0"/>
<stop offset="1" stop-color="white" stop-opacity="0.3"/>
</linearGradient>
<linearGradient id="paint7_linear_1_30" x1="508.868" y1="139.539" x2="506.579" y2="61.1511" gradientUnits="userSpaceOnUse">
<stop stop-color="white" stop-opacity="0"/>
<stop offset="1" stop-color="white" stop-opacity="0.3"/>
</linearGradient>
<linearGradient id="paint8_linear_1_30" x1="246.761" y1="147.192" x2="244.473" y2="68.8038" gradientUnits="userSpaceOnUse">
<stop stop-color="white" stop-opacity="0"/>
<stop offset="1" stop-color="white" stop-opacity="0.3"/>
</linearGradient>
<linearGradient id="paint9_linear_1_30" x1="166.343" y1="149.54" x2="164.054" y2="71.1518" gradientUnits="userSpaceOnUse">
<stop stop-color="white" stop-opacity="0"/>
<stop offset="1" stop-color="white" stop-opacity="0.3"/>
</linearGradient>
<linearGradient id="paint10_linear_1_30" x1="175.365" y1="28.4922" x2="158.95" y2="52.6858" gradientUnits="userSpaceOnUse">
<stop stop-color="white"/>
<stop offset="1" stop-color="#DDDDDD"/>
</linearGradient>
<linearGradient id="paint11_linear_1_30" x1="165.909" y1="44.5083" x2="165.931" y2="22.6144" gradientUnits="userSpaceOnUse">
<stop stop-color="white" stop-opacity="0"/>
<stop offset="0.9537" stop-color="white" stop-opacity="0.2861"/>
<stop offset="1" stop-color="white" stop-opacity="0.3"/>
</linearGradient>
</defs>
</svg>
