<svg xmlns="http://www.w3.org/2000/svg" xmlns:xlink="http://www.w3.org/1999/xlink" viewBox="0 0 465 262"><linearGradient id="a"><stop offset="0" stop-color="#fff"></stop><stop offset="1" stop-color="#d2d3d4"></stop></linearGradient><linearGradient id="b" gradientTransform="matrix(1 0 0 -1 0 500.1102)" gradientUnits="userSpaceOnUse" x1="217.9801" x2="217.9801" xlink:href="#a" y1="323.96" y2="429.3756"></linearGradient><linearGradient id="c" gradientTransform="matrix(1 0 0 -1 0 500.1102)" gradientUnits="userSpaceOnUse" x1="372.5401" x2="372.5401" xlink:href="#a" y1="323.9272" y2="429.3473"></linearGradient><linearGradient id="d" gradientTransform="matrix(1 0 0 -1 0 500.1102)" gradientUnits="userSpaceOnUse" x1="29.5934" x2="29.5934" xlink:href="#a" y1="323.9272" y2="429.3473"></linearGradient><linearGradient id="e" gradientTransform="matrix(1 0 0 -1 0 500.1102)" gradientUnits="userSpaceOnUse" x1="110.3837" x2="110.3837" xlink:href="#a" y1="323.9272" y2="429.3429"></linearGradient><linearGradient id="f" gradientTransform="matrix(1 0 0 -1 0 500.1102)" gradientUnits="userSpaceOnUse" x1="39.1113" x2="22.6743" y1="471.9114" y2="447.6859"><stop offset="0" stop-color="#d3ab60"></stop><stop offset="1" stop-color="#9a7e42"></stop></linearGradient><linearGradient id="g"><stop offset="0" stop-color="#fff" stop-opacity="0"></stop><stop offset=".9537" stop-color="#fff" stop-opacity=".2861"></stop><stop offset="1" stop-color="#fff" stop-opacity=".3"></stop></linearGradient><linearGradient id="h" gradientTransform="matrix(.8534 .00088918 -.00088918 -.6017 -4.2406 248.5307)" gradientUnits="userSpaceOnUse" x1="40.0147" x2="40.0147" xlink:href="#g" y1="339.6245" y2="376.0592"></linearGradient><linearGradient id="i"><stop offset="0" stop-color="#fff" stop-opacity="0"></stop><stop offset="1" stop-color="#fff" stop-opacity=".3"></stop></linearGradient><linearGradient id="j" gradientTransform="matrix(1 0 0 -1 0 500.1102)" gradientUnits="userSpaceOnUse" x1="218.5835" x2="216.2947" xlink:href="#i" y1="356.0665" y2="434.4545"></linearGradient><linearGradient id="k" gradientTransform="matrix(1 0 0 -1 0 500.1102)" gradientUnits="userSpaceOnUse" x1="372.8681" x2="370.5794" xlink:href="#i" y1="360.5713" y2="438.9591"></linearGradient><linearGradient id="l" gradientTransform="matrix(1 0 0 -1 0 500.1102)" gradientUnits="userSpaceOnUse" x1="110.7613" x2="108.4727" xlink:href="#i" y1="352.9185" y2="431.3064"></linearGradient><linearGradient id="m" gradientTransform="matrix(1 0 0 -1 0 500.1102)" gradientUnits="userSpaceOnUse" x1="30.3429" x2="28.0542" xlink:href="#i" y1="350.5704" y2="428.9584"></linearGradient><linearGradient id="n" gradientUnits="userSpaceOnUse" x1="39.3652" x2="22.9498" y1="28.4922" y2="52.6858"><stop offset="0" stop-color="#d3ab5f"></stop><stop offset="1" stop-color="#997d42"></stop></linearGradient><linearGradient id="o" gradientTransform="matrix(.8534 .00088918 .00088918 .6017 4.9897 13.5267)" gradientUnits="userSpaceOnUse" x1="29.1459" x2="29.1459" xlink:href="#g" y1="51.447" y2="15.0602"></linearGradient><path d="m219.5 70.7c-36.4 0-58.6 22.3-58.6 53.6 0 32.4 25.4 51.8 56.4 51.8h.2c30.6 0 57.7-18.9 57.7-53.9-.2-29.9-22.6-51.5-55.7-51.5zm-1.6 82.6h-.2c-14.4 0-23.1-12.6-23.1-29.7 0-15.2 6.9-29.9 23.5-29.9 15.8 0 22.7 14.5 22.7 29.6-.1 19.3-9.5 30-22.9 30z" fill="url(#b)"></path><path d="m417.5 70.7c-8.3 0-14.9 1.8-20.7 5.4-5.1 3-9.8 7.1-14 13h-.4c-4.7-11.3-15.7-18.4-29.4-18.4-19.4 0-28.5 10.7-32.4 16.7h-.7l-1.3-14.3h-27.4c.4 8.8.9 19.7.9 32.8v67.8h31.6v-56.9c0-2.6.2-5.3 1.2-8.1 1.9-4.7 6.9-11.9 16.2-11.9 10.5 0 16.3 8.3 16.3 22.8v54.1h31.6v-57.1c0-2.3.3-5.6 1.3-8.2 2.2-6.1 7.7-11.5 15.8-11.5 10.7 0 16.6 8.2 16.6 23.8v53.1h31.3v-57.5c-.1-32.2-16.9-45.6-36.5-45.6z" fill="url(#c)"></path><path d="m13 73h33.2v101.8h-33.2z" fill="url(#d)"></path><path d="m129.8 150.8c-16 0-29.9-9.3-29.9-27.9-.2-16.1 11.4-27.7 29.1-27.7 9.5 0 15.6 1.7 20 3.6l5.3-23.9c-7.9-2.9-18-4.4-26.9-4.4-40.5 0-61.3 24.9-61.3 53.6 0 31.2 22 51.8 56.8 51.8 13.3 0 25-2.2 31.6-5.2l-4.1-23.7c-5.4 2.3-12 3.8-20.6 3.8z" fill="url(#e)"></path><circle cx="29.6" cy="42.2" fill="url(#f)" r="18.6"></circle><path d="m15.7 35.6c0-5.4 6.3-9.8 13.9-9.8s13.9 4.5 13.9 9.9-6.3 9.8-13.9 9.8c-7.8 0-13.9-4.4-13.9-9.9z" fill="url(#h)"></path><path d="m219.5 74.5c-33.4 0-54.9 19.6-54.9 49.9 0 28.3 21.7 48.1 52.7 48.1h.2c26.8 0 53.9-15.5 53.9-50.2-.1-28.2-21.4-47.8-51.9-47.8zm-1.6 82.5h-.2c-16.1 0-26.8-13.4-26.8-33.4 0-20.4 10.6-33.6 27.2-33.6 18.2 0 26.4 16.7 26.4 33.3 0 20.4-10.5 33.7-26.6 33.7z" fill="url(#j)"></path><path d="m417.5 73.9c-7.4 0-13.5 1.6-19 5-5 2.9-9.3 6.8-13.1 12.1-.6.9-1.6 1.3-2.6 1.3h-.4c-1.3 0-2.4-.7-3-2-4.1-10.1-14.3-16.4-26.5-16.4-13.1 0-23.1 5.1-29.8 15.2-.6.9-1.6 1.4-2.7 1.4h-.7c-1.6 0-3-1.3-3.2-2.9l-.7-8.4c-.1-1.6-1.5-2.9-3.2-2.9h-14.9c-1.8 0-3.3 1.5-3.2 3.3.3 8.5.5 17.2.5 26.2v61.4c0 1.8 1.4 3.2 3.2 3.2h18.8c1.8 0 3.2-1.4 3.2-3.2v-50.5c0-2.6.2-6 1.4-9.1 2.8-6.8 9.1-14 19.1-14 12.2 0 19.5 9.7 19.5 26v47.8c0 1.8 1.4 3.2 3.2 3.2h18.8c1.8 0 3.2-1.4 3.2-3.2v-50.7c0-2.4.4-6.3 1.4-9.3 2.4-6.6 8.6-13.6 18.8-13.6 7.3 0 19.8 3.5 19.8 27v46.7c0 1.8 1.4 3.2 3.2 3.2h18.8c1.8 0 3.2-1.4 3.2-3.2v-51.5c.1-26.3-12.2-42.1-33.1-42.1z" fill="url(#k)"></path><path d="m147.9 157.3c-.4-2.3-2.7-3.9-5-3.4-4.1.9-8.4 1.3-13.1 1.3-17 0-34.1-9.9-34.1-32.1-.1-8.7 3-16.7 8.6-22.3 6.1-6.1 14.8-9.5 24.8-9.5 4.7 0 8.9.4 12.8 1.2 2.2.4 4.5-1 5-3.2l1.6-7c.5-2.3-1-4.6-3.2-5.1-5.6-1.3-11.8-1.9-17.8-1.9-42 0-57 26.6-57 49.4 0 28.8 20.6 47.5 52.5 47.5 8.3 0 16.6-1 23-2.6 2.1-.5 3.5-2.7 3.1-4.9z" fill="url(#l)"></path><path d="m40.3 75.6h-21.5c-1.8 0-3.2 1.4-3.2 3.2v90.1c0 1.8 1.4 3.2 3.2 3.2h21.5c1.8 0 3.2-1.4 3.2-3.2v-90.1c0-1.8-1.5-3.2-3.2-3.2z" fill="url(#m)"></path><circle cx="29.9" cy="42.5" fill="url(#n)" r="18.6"></circle><path d="m16 35.9c0-5.4 6.3-9.8 14-9.8s13.9 4.4 13.9 9.9c0 5.4-6.3 9.8-14 9.8s-14-4.4-13.9-9.9z" fill="url(#o)"></path><g fill="#a08137"><path d="m42.6 221.7-5.6-17.2-5.7 17.2h-18.3l14.8 10.6-5.6 17.1 14.8-10.6 14.7 10.6-5.6-17.1 14.8-10.6z"></path><path d="m454 221.7h-18.3l-5.6-17.2-5.7 17.2h-18.3l14.8 10.6-5.6 17.1 14.8-10.6 14.7 10.6-5.6-17.1z"></path><path d="m370.2 221.7-5.7-17.2-5.6 17.2h-18.3l14.8 10.6-5.6 17.1 14.7-10.6 14.8 10.6-5.6-17.1 14.8-10.6z"></path><path d="m304.7 221.7-5.7-17.2-5.6 17.2h-18.3l14.8 10.6-5.7 17.1 14.8-10.6 14.8 10.6-5.6-17.1 14.8-10.6z"></path><path d="m239.2 221.7-5.7-17.2-5.7 17.2h-18.3l14.9 10.6-5.7 17.1 14.8-10.6 14.8 10.6-5.6-17.1 14.8-10.6z"></path><path d="m173.7 221.7-5.7-17.2-5.7 17.2h-18.3l14.8 10.6-5.6 17.1 14.8-10.6 14.8 10.6-5.7-17.1 14.9-10.6z"></path><path d="m108.1 221.7-5.6-17.2-5.7 17.2h-18.3l14.8 10.6-5.6 17.1 14.8-10.6 14.8 10.6-5.7-17.1 14.9-10.6z"></path></g><path d="m318.9 16.8-3.9 4c-2.4-1.8-4.4-2.7-7.2-2.7-5 0-8.9 3.7-8.9 12.8 0 9.4 2.6 12.8 7.8 12.8 1.9 0 3.6-.4 5.2-1.3v-8.6h-4.9l-.8-5.4h12.9v17.3c-3.5 2.2-7.8 3.5-12.3 3.5-10.3 0-15.7-6.3-15.7-18.4 0-11.8 7.3-18.3 16.4-18.3 5 .1 8.5 1.9 11.4 4.3z" fill="#fff"></path><path d="m336.5 34.8h-3.8v13.7h-7.4v-35h10.9c9.4 0 14.1 3.4 14.1 10.5 0 4.7-2.3 7.4-6.9 9.5l9.1 15.1h-8.5zm-3.8-5.3h3.9c3.9 0 6-1.6 6-5.6 0-3.6-2.1-5.2-6.6-5.2h-3.3z" fill="#fff"></path><path d="m382.1 36.9c0 7-4.5 12.3-13.4 12.3s-13.3-5.1-13.3-12.3v-23.5h7.4v23.1c0 4.7 1.8 7 5.9 7s5.9-2.3 5.9-7v-23.1h7.4v23.5z" fill="#fff"></path><path d="m414.2 24.7c0 8.1-5.8 11.8-13.8 11.8h-4v11.9h-7.4v-35h10.8c9 0 14.4 3.7 14.4 11.3zm-7.6 0c0-4.1-2.4-5.9-6.8-5.9h-3.3v12.2h3.4c4.1.1 6.7-1.5 6.7-6.3z" fill="#fff"></path><path d="m448.5 31c0 11.5-5.9 18.3-15.5 18.3s-15.6-6.6-15.6-18.3c0-11.4 6-18.3 15.6-18.3 9.6-.1 15.5 6.5 15.5 18.3zm-23.3 0c0 9.2 2.9 12.8 7.7 12.8 5 0 7.7-3.6 7.7-12.8s-2.7-12.8-7.7-12.8c-4.9 0-7.7 3.6-7.7 12.8z" fill="#fff"></path></svg>