<svg viewBox="0 0 95 119" fill="none" xmlns="http://www.w3.org/2000/svg">
<g clip-path="url(#clip0_5_396)">
<path fill-rule="evenodd" clip-rule="evenodd" d="M22.2022 65.6914L22.2022 53.2562L32.236 49.5309L32.236 69.4691L22.2022 65.6914ZM36.6657 114.435L36.6657 4.6173C36.6657 2.09878 38.7472 0.0524809 41.309 0.0524808L76.5871 0.0524793C79.1489 0.0524791 81.177 2.15125 81.4972 4.6173L94.9467 114.435C95.2669 116.954 92.8652 119 90.3034 119L41.309 119C38.7472 119 36.6657 116.954 36.6657 114.435ZM45.3652 99.1667C45.3652 99.7438 45.8455 100.269 46.486 100.269L55.0253 100.269L55.0253 108.664C55.0253 109.241 55.5056 109.765 56.0927 109.765L64.4185 109.765C65.0056 109.765 65.5393 109.293 65.5393 108.664L65.5393 100.269L74.0787 100.269C74.6657 100.269 75.1995 99.7963 75.1995 99.1667L75.1995 90.9815C75.1995 90.4043 74.7191 89.8796 74.0787 89.8796L65.5393 89.8796L65.5393 81.4846C65.5393 80.9074 65.059 80.3827 64.4185 80.3827L56.0927 80.3827C55.5056 80.3827 55.0253 80.8549 55.0253 81.4846L55.0253 89.8796L46.486 89.8796C45.8989 89.8796 45.3652 90.3519 45.3652 90.9815L45.3652 99.1667ZM48.1938 30.3272C48.1938 32.7408 50.1152 34.7346 52.4635 34.7346C54.8118 34.7346 56.7332 32.7932 56.7332 30.3272C56.7332 27.8611 54.8118 25.9198 52.4635 25.9198C50.1152 25.9198 48.1938 27.8611 48.1938 30.3272ZM57.3736 25.5C57.3736 27.9136 59.295 29.9074 61.6433 29.9074C63.9916 29.9074 65.9129 27.9661 65.9129 25.5C65.9129 23.034 63.9916 21.0926 61.6433 21.0926C59.295 21.0926 57.3736 23.034 57.3736 25.5ZM49.2612 18.5216C49.2612 20.9352 51.1826 22.929 53.5309 22.929C55.8792 22.929 57.8006 20.9877 57.8006 18.5216C57.8006 16.0556 55.8792 14.1142 53.5309 14.1142C51.1826 14.1142 49.2612 16.0556 49.2612 18.5216ZM58.4944 13.6945C58.4944 16.108 60.4157 18.1019 62.7641 18.1019C65.1124 18.1019 67.0337 16.1605 67.0337 13.6945C67.0337 11.2284 65.1124 9.28705 62.7641 9.28705C60.4157 9.28705 58.4944 11.2284 58.4944 13.6945ZM1.01404 17.6296C0.0533651 18.1543 -0.32023 19.3087 0.213478 20.2531C0.747186 21.1975 1.92134 21.5648 2.88202 21.0401C2.88202 21.0401 9.60674 17.5247 15.5843 17.8395C18.1461 17.9969 20.3343 19.0463 21.8287 20.6204C22.7893 21.6173 23.4298 22.8241 23.75 24.0833C24.0169 25.3426 23.9101 26.6543 23.3764 27.9661C22.5225 29.9599 20.6011 31.9012 17.3455 33.4229C15.9045 34.1049 14.3567 34.8395 12.8624 35.7315C11.3146 36.6235 9.82022 37.5679 8.53932 38.6173C6.08427 40.5587 4.58988 42.6574 3.84269 44.8086C2.93539 47.3796 3.0955 49.9506 4.00281 52.3117C4.91011 54.5679 6.51123 56.6142 8.64606 58.1883C11.1011 60.0772 14.25 61.3364 17.559 61.5988C18.6264 61.7037 19.5871 60.9167 19.6938 59.8148C19.8006 58.7654 19 57.821 17.8792 57.7161C15.3174 57.5062 12.9157 56.5093 10.9944 55.0926C9.44663 53.9383 8.27247 52.4691 7.63202 50.8426C7.04494 49.321 6.9382 47.642 7.52528 46.0154C8.05899 44.4938 9.17977 42.9722 10.9944 41.5556C12.1685 40.6111 13.4494 39.7716 14.8371 39.037C16.2247 38.25 17.6657 37.5679 19.0534 36.8858C23.323 34.892 25.8315 32.2685 27.059 29.4352C27.9129 27.3889 28.073 25.2377 27.6461 23.2963C27.2191 21.3549 26.2051 19.5185 24.764 17.9969C22.6292 15.7408 19.4803 14.2191 15.9045 14.0093C8.85955 13.642 1.17415 17.6296 1.17415 17.6296L1.01404 17.6296Z" fill="#0668DB"/>
</g>
<defs>
<clipPath id="clip0_5_396">
<rect width="119" height="95" fill="white" transform="translate(0 119) rotate(-90)"/>
</clipPath>
</defs>
</svg>
