<svg viewBox="0 0 212 38" fill="none" xmlns="http://www.w3.org/2000/svg">
<path d="M46.6419 16.216C45.7779 14.368 44.5419 12.952 42.9339 11.968C41.3499 10.984 39.5259 10.492 37.4619 10.492C35.5419 10.492 33.8019 10.936 32.2419 11.824C30.7059 12.712 29.4819 13.972 28.5699 15.604C27.6819 17.212 27.2379 19.144 27.2379 21.4C27.2379 23.632 27.6819 25.564 28.5699 27.196C29.4819 28.828 30.7059 30.088 32.2419 30.976C33.8019 31.84 35.5419 32.272 37.4619 32.272C38.9259 32.272 40.2939 32.008 41.5659 31.48C42.8379 30.952 43.9299 30.196 44.8419 29.212C45.7779 28.204 46.4859 27.004 46.9659 25.612V22.516H37.6059V20.716H49.1619V25.756C48.6339 27.412 47.8059 28.888 46.6779 30.184C45.5739 31.456 44.2299 32.452 42.6459 33.172C41.0619 33.892 39.3339 34.252 37.4619 34.252C35.6859 34.252 34.0419 33.94 32.5299 33.316C31.0179 32.692 29.6979 31.816 28.5699 30.688C27.4419 29.536 26.5659 28.18 25.9419 26.62C25.3419 25.036 25.0419 23.296 25.0419 21.4C25.0419 19.504 25.3419 17.776 25.9419 16.216C26.5659 14.632 27.4419 13.276 28.5699 12.148C29.6979 10.996 31.0179 10.108 32.5299 9.484C34.0419 8.86 35.6859 8.548 37.4619 8.548C39.1419 8.548 40.7019 8.824 42.1419 9.376C43.5819 9.928 44.8419 10.732 45.9219 11.788C47.0259 12.82 47.9019 14.056 48.5499 15.496L46.6419 16.216ZM63.4387 10.708H62.2507L53.6107 34H51.3787L60.7387 8.8H64.9147L74.2387 34H72.0427L63.4387 10.708ZM55.5187 25.144H70.2067V27.052H55.5187V25.144ZM79.9031 34H77.7071V8.8H80.0831L89.8391 31.012L99.5591 8.8H101.935V34H99.7391V13.228L90.6311 34H89.0111L79.9031 13.228V34ZM108.258 8.8H110.454V34H108.258V8.8ZM135.557 8.8V34H133.361L118.997 12.328V34H116.801V8.8H118.997L133.361 30.436V8.8H135.557ZM146.042 8.8V29.932H157.274V34H141.182V8.8H146.042ZM160.518 8.8H165.378V34H160.518V8.8ZM173.82 26.872C173.94 27.544 174.204 28.132 174.612 28.636C175.02 29.14 175.548 29.536 176.196 29.824C176.868 30.088 177.648 30.22 178.536 30.22C179.928 30.22 180.972 29.908 181.668 29.284C182.364 28.636 182.712 27.856 182.712 26.944C182.712 26.224 182.496 25.624 182.064 25.144C181.632 24.664 181.02 24.256 180.228 23.92C179.46 23.584 178.56 23.26 177.528 22.948C176.568 22.66 175.62 22.348 174.684 22.012C173.748 21.676 172.896 21.256 172.128 20.752C171.36 20.248 170.748 19.6 170.292 18.808C169.86 17.992 169.644 16.972 169.644 15.748C169.644 14.212 170.016 12.904 170.76 11.824C171.528 10.744 172.572 9.928 173.892 9.376C175.212 8.824 176.736 8.548 178.464 8.548C179.928 8.548 181.248 8.764 182.424 9.196C183.6 9.604 184.584 10.216 185.376 11.032C186.192 11.824 186.792 12.808 187.176 13.984L182.676 15.208C182.556 14.68 182.292 14.224 181.884 13.84C181.476 13.456 180.984 13.156 180.408 12.94C179.832 12.7 179.208 12.58 178.536 12.58C177.816 12.556 177.156 12.664 176.556 12.904C175.956 13.144 175.476 13.492 175.116 13.948C174.756 14.404 174.576 14.932 174.576 15.532C174.576 16.204 174.78 16.744 175.188 17.152C175.596 17.536 176.136 17.872 176.808 18.16C177.48 18.424 178.236 18.688 179.076 18.952C180.084 19.24 181.092 19.576 182.1 19.96C183.108 20.32 184.032 20.788 184.872 21.364C185.712 21.916 186.384 22.624 186.888 23.488C187.416 24.352 187.68 25.444 187.68 26.764C187.68 28.156 187.344 29.416 186.672 30.544C186.024 31.672 185.04 32.572 183.72 33.244C182.4 33.916 180.744 34.252 178.752 34.252C177.12 34.252 175.632 34.012 174.288 33.532C172.968 33.052 171.876 32.356 171.012 31.444C170.148 30.508 169.584 29.404 169.32 28.132L173.82 26.872ZM190.372 8.8H210.82V12.868H203.044V34H198.184V12.868H190.372V8.8Z" fill="#8A1CA8"/>
<g clip-path="url(#clip0_18_14)">
<path fill-rule="evenodd" clip-rule="evenodd" d="M4.44045 23.2487L4.44045 20.7407L6.44719 19.9894L6.44719 24.0106L4.44045 23.2487ZM7.33315 33.0794L7.33315 10.9312C7.33315 10.4233 7.74944 10.0106 8.2618 10.0106L15.3174 10.0106C15.8298 10.0106 16.2354 10.4339 16.2994 10.9312L18.9893 33.0794C19.0534 33.5873 18.573 34 18.0607 34L8.2618 34C7.74944 34 7.33315 33.5873 7.33315 33.0794ZM9.07304 30C9.07304 30.1164 9.16911 30.2222 9.2972 30.2222L11.0051 30.2222L11.0051 31.9153C11.0051 32.0317 11.1011 32.1376 11.2185 32.1376L12.8837 32.1376C13.0011 32.1376 13.1079 32.0423 13.1079 31.9153L13.1079 30.2222L14.8157 30.2222C14.9332 30.2222 15.0399 30.127 15.0399 30L15.0399 28.3492C15.0399 28.2328 14.9438 28.127 14.8157 28.127L13.1079 28.127L13.1079 26.4339C13.1079 26.3175 13.0118 26.2116 12.8837 26.2116L11.2185 26.2116C11.1011 26.2116 11.0051 26.3069 11.0051 26.4339L11.0051 28.127L9.2972 28.127C9.17978 28.127 9.07304 28.2222 9.07304 28.3492L9.07304 30ZM9.63877 16.1164C9.63877 16.6032 10.023 17.0053 10.4927 17.0053C10.9624 17.0053 11.3466 16.6138 11.3466 16.1164C11.3466 15.619 10.9624 15.2275 10.4927 15.2275C10.023 15.2275 9.63877 15.619 9.63877 16.1164ZM11.4747 15.1429C11.4747 15.6296 11.859 16.0317 12.3287 16.0317C12.7983 16.0317 13.1826 15.6402 13.1826 15.1429C13.1826 14.6455 12.7983 14.254 12.3287 14.254C11.859 14.254 11.4747 14.6455 11.4747 15.1429ZM9.85225 13.7355C9.85225 14.2222 10.2365 14.6243 10.7062 14.6243C11.1758 14.6243 11.5601 14.2328 11.5601 13.7355C11.5601 13.2381 11.1758 12.8466 10.7062 12.8466C10.2365 12.8466 9.85225 13.2381 9.85225 13.7355ZM11.6989 12.7619C11.6989 13.2487 12.0831 13.6508 12.5528 13.6508C13.0225 13.6508 13.4067 13.2593 13.4067 12.7619C13.4067 12.2646 13.0225 11.873 12.5528 11.873C12.0831 11.873 11.6989 12.2646 11.6989 12.7619ZM0.20281 13.5556C0.0106753 13.6614 -0.0640438 13.8942 0.0426978 14.0847C0.149439 14.2751 0.384271 14.3492 0.576406 14.2434C0.576406 14.2434 1.92135 13.5344 3.11686 13.5979C3.62922 13.6296 4.06686 13.8413 4.36573 14.1587C4.55787 14.3598 4.68596 14.6032 4.75 14.8571C4.80337 15.1111 4.78202 15.3757 4.67528 15.6402C4.5045 16.0423 4.12023 16.4339 3.4691 16.7407C3.1809 16.8783 2.87135 17.0265 2.57247 17.2063C2.26292 17.3862 1.96405 17.5767 1.70787 17.7884C1.21686 18.1799 0.917979 18.6032 0.768541 19.037C0.58708 19.5556 0.619103 20.0741 0.800563 20.5503C0.982024 21.0053 1.30225 21.418 1.72922 21.7354C2.22023 22.1164 2.85 22.3704 3.5118 22.4233C3.72528 22.4444 3.91742 22.2857 3.93877 22.0635C3.96011 21.8519 3.8 21.6614 3.57584 21.6402C3.06349 21.5979 2.58315 21.3968 2.19888 21.1111C1.88933 20.8783 1.6545 20.582 1.52641 20.254C1.40899 19.9471 1.38764 19.6085 1.50506 19.2804C1.6118 18.9735 1.83596 18.6667 2.19888 18.381C2.43371 18.1905 2.68989 18.0212 2.96742 17.873C3.24495 17.7143 3.53315 17.5767 3.81068 17.4392C4.66461 17.037 5.16629 16.5079 5.4118 15.9365C5.58259 15.5238 5.61461 15.0899 5.52922 14.6984C5.44382 14.3069 5.24101 13.9365 4.95281 13.6296C4.52585 13.1746 3.89607 12.8677 3.1809 12.8254C1.77191 12.7513 0.234833 13.5556 0.234833 13.5556L0.20281 13.5556Z" fill="#FF99F3"/>
</g>
<defs>
<clipPath id="clip0_18_14">
<rect width="24" height="19" fill="white" transform="translate(0 34) rotate(-90)"/>
</clipPath>
</defs>
</svg>
