<svg width="26" height="26" viewBox="0 0 26 26" fill="none" xmlns="http://www.w3.org/2000/svg">
<g clip-path="url(#clip0_3_102)">
<path d="M24.83 21.0715L15.3111 25.4909C13.8522 26.1697 12.1478 26.1697 10.6889 25.4909L1.17 21.0715C-0.39 20.3494 -0.39 18.1253 1.17 17.4031L1.37222 17.3165L9.77889 21.2015C10.79 21.6781 11.8733 21.9236 13 21.9236C14.1267 21.9236 15.21 21.6781 16.2211 21.2015L24.6278 17.3165L24.83 17.4031C26.39 18.1253 26.39 20.3494 24.83 21.0715ZM24.83 11.1496L24.6422 11.0629L17.9111 14.1969L16.2211 14.9768C15.21 15.439 14.1267 15.6845 13 15.6845C11.8733 15.6845 10.79 15.439 9.77889 14.9768L8.08889 14.1969L1.35778 11.0629L1.17 11.1496C-0.39 11.8861 -0.39 14.1103 1.17 14.8324L3.94333 16.1178L10.6889 19.2373C11.4256 19.5839 12.2056 19.7573 13 19.7573C13.7944 19.7573 14.5744 19.5839 15.3111 19.2373L22.0567 16.1178L24.83 14.8324C26.39 14.1103 26.39 11.8861 24.83 11.1496ZM24.83 4.92487L15.3111 0.505485C14.5744 0.173309 13.7944 0 13 0C12.2056 0 11.4256 0.173309 10.6889 0.505485L1.17 4.92487C-0.39 5.64699 -0.39 7.87113 1.17 8.59325L1.35778 8.67991L2.64333 9.27205L3.92889 9.87863L10.6889 13.0126C11.4256 13.3448 12.2056 13.5181 13 13.5181C13.7944 13.5181 14.5744 13.3448 15.3111 13.0126L22.0711 9.87863L23.3567 9.27205L24.6422 8.67991L24.83 8.59325C26.39 7.87113 26.39 5.64699 24.83 4.92487Z" fill="#63D5FF"/>
</g>
<defs>
<clipPath id="clip0_3_102">
<rect width="26" height="26" fill="white"/>
</clipPath>
</defs>
</svg>
