<svg width="24" height="24" viewBox="0 0 24 24" fill="none" xmlns="http://www.w3.org/2000/svg">
<g clip-path="url(#clip0_3_105)">
<path d="M12 0C5.376 0 0 5.376 0 12C0 18.624 5.376 24 12 24C18.624 24 24 18.624 24 12C24 5.376 18.624 0 12 0ZM16.2 12.9H12.9V16.2C12.9 16.692 12.492 17.1 12 17.1C11.508 17.1 11.1 16.692 11.1 16.2V12.9H7.8C7.308 12.9 6.9 12.492 6.9 12C6.9 11.508 7.308 11.1 7.8 11.1H11.1V7.8C11.1 7.308 11.508 6.9 12 6.9C12.492 6.9 12.9 7.308 12.9 7.8V11.1H16.2C16.692 11.1 17.1 11.508 17.1 12C17.1 12.492 16.692 12.9 16.2 12.9Z" fill="#63D5FF"/>
</g>
<defs>
<clipPath id="clip0_3_105">
<rect width="24" height="24" fill="white"/>
</clipPath>
</defs>
</svg>
